<svg id="Layer_1" data-name="Layer 1" xmlns="http://www.w3.org/2000/svg" xmlns:xlink="http://www.w3.org/1999/xlink" viewBox="0 0 300 300"><defs><style>.cls-1{fill:url(#linear-gradient);}.cls-2{fill:#fff;}</style><linearGradient id="linear-gradient" x1="-954" y1="-810" x2="-666" y2="-810" gradientTransform="translate(-660 960) rotate(90)" gradientUnits="userSpaceOnUse"><stop offset="0" stop-color="#4fbe96"/><stop offset="0.15253" stop-color="#57c19b"/><stop offset="0.39018" stop-color="#6dc8a7"/><stop offset="0.68321" stop-color="#91d4bb"/><stop offset="1" stop-color="#c0e3d6"/></linearGradient></defs><circle class="cls-1" cx="150" cy="150" r="144"/><path class="cls-2" d="M148.51342,215.83266c-2.69348-.77571-5.40818-1.485-8.0768-2.33844-12.47293-3.98883-24.04389-9.65122-33.73632-18.64908-6.60133-6.12829-11.48318-13.34478-13.27223-22.34077a31.2442,31.2442,0,0,1-.65063-5.98008q-.07052-31.28687-.02864-62.574a3.90825,3.90825,0,0,1,4.03326-4.19476c4.10274-.20788,8.22126-.23752,12.307-.62067,10.37487-.9729,20.58974-2.71965,30.14964-7.15639a28.78385,28.78385,0,0,0,9.16113-6.4812,3.54094,3.54094,0,0,1,5.52848-.00557c3.373,4.33971,7.96866,6.77414,12.95111,8.63954a85.04261,85.04261,0,0,0,21.85636,4.75227c4.72354.45191,9.47622.60911,14.218.85655,2.74348.14316,4.28481,1.61784,4.28678,4.37978q.02184,30.70878-.004,61.41758c-.016,10.38651-4.16978,19.08081-11.18138,26.52352-7.13206,7.57059-15.83016,12.86489-25.23658,17.08094a89.85684,89.85684,0,0,1-19.66032,6.50706,1.24146,1.24146,0,0,0-.33184.18368ZM100.517,107.57865c-.02678.36986-.06675.66432-.06677.95878q-.00245,28.65132.015,57.30262a27.30908,27.30908,0,0,0,2.18322,10.60639c2.9326,6.98216,7.98274,12.19966,13.97219,16.576,9.83673,7.1875,20.95915,11.60153,32.61516,14.80248a3.24665,3.24665,0,0,0,1.75277-.08194c4.34683-1.39855,8.75047-2.661,12.99742-4.32135,9.09918-3.5574,17.64184-8.12478,24.78471-14.94527,7.005-6.68886,10.85372-14.655,10.73761-24.6009-.21245-18.19891-.06048-36.40206-.06048-54.60345v-1.695c-.70037-.05192-1.253-.08537-1.80414-.13492-5.067-.45557-10.15488-.752-15.19529-1.41123a76.10011,76.10011,0,0,1-19.63349-5.21523,43.38179,43.38179,0,0,1-11.7124-7.07143c-2.3154,1.413-4.472,2.88991-6.76807,4.103-11.13019,5.88057-23.19637,8.23338-35.59767,9.24506C106.01314,107.31449,103.28,107.41832,100.517,107.57865Z"/><path class="cls-2" d="M138.46823,146.20141h1.67045q16.05866,0,32.11731.00078c3.28784.00057,4.75218,1.47887,4.75269,4.79506q.00225,14.64549-.00043,29.291c-.00085,3.19462-1.50672,4.68293-4.73149,4.68317q-22.35366.00168-44.7073-.00035c-3.08433-.00036-4.58726-1.46964-4.59048-4.53984q-.01557-14.83818-.00015-29.67639c.00312-3.07273,1.50526-4.54473,4.58222-4.55294.98185-.00262,1.96372-.00042,3.14659-.00042,0-.53036-.00082-.9821.00013-1.43385.00766-3.63985-.08926-7.28352.04327-10.91882a19.27626,19.27626,0,0,1,38.5267.0287c.08115,2.52617-1.45575,4.39892-3.72235,4.53575a3.89665,3.89665,0,0,1-4.03175-3.94533,11.38248,11.38248,0,0,0-4.8737-9.30095,11.06494,11.06494,0,0,0-12.01828-.78864,10.80668,10.80668,0,0,0-6.14534,9.95031C138.39942,138.21976,138.46823,142.11435,138.46823,146.20141Zm-7.66264,30.8635h38.34693V154.07929H130.80559Z"/><path class="cls-2" d="M153.87125,165.54358a4.01265,4.01265,0,0,1-3.9079,3.95916,3.91395,3.91395,0,0,1,.038-7.827A4.00947,4.00947,0,0,1,153.87125,165.54358Z"/></svg>